<?xml version="1.0" encoding="UTF-8" standalone="no"?>
<!-- Created with Inkscape (http://www.inkscape.org/) -->

<svg
   xmlns:dc="http://purl.org/dc/elements/1.1/"
   xmlns:cc="http://creativecommons.org/ns#"
   xmlns:rdf="http://www.w3.org/1999/02/22-rdf-syntax-ns#"
   xmlns:svg="http://www.w3.org/2000/svg"
   xmlns="http://www.w3.org/2000/svg"
   xmlns:sodipodi="http://sodipodi.sourceforge.net/DTD/sodipodi-0.dtd"
   xmlns:inkscape="http://www.inkscape.org/namespaces/inkscape"
   width="100"
   height="100"
   id="svg2"
   version="1.1"
   inkscape:version="0.48.4 r9939"
   sodipodi:docname="defaultItem.svg"
   inkscape:export-filename="E:\Programming Stuffs\TextyText\cactus.png"
   inkscape:export-xdpi="3456"
   inkscape:export-ydpi="3456">
  <defs
     id="defs4" />
  <sodipodi:namedview
     id="base"
     pagecolor="#ffffff"
     bordercolor="#666666"
     borderopacity="1.0"
     inkscape:pageopacity="0.0"
     inkscape:pageshadow="2"
     inkscape:zoom="2.8284271"
     inkscape:cx="-4.8649894"
     inkscape:cy="52.322814"
     inkscape:document-units="px"
     inkscape:current-layer="layer1"
     showgrid="true"
     inkscape:window-width="1440"
     inkscape:window-height="878"
     inkscape:window-x="-8"
     inkscape:window-y="-8"
     inkscape:window-maximized="1"
     inkscape:snap-grids="true">
    <inkscape:grid
       type="xygrid"
       id="grid2985"
       empspacing="5"
       visible="true"
       enabled="true"
       snapvisiblegridlinesonly="true" />
  </sodipodi:namedview>
  <metadata
     id="metadata7">
    <rdf:RDF>
      <cc:Work
         rdf:about="">
        <dc:format>image/svg+xml</dc:format>
        <dc:type
           rdf:resource="http://purl.org/dc/dcmitype/StillImage" />
        <dc:title></dc:title>
      </cc:Work>
    </rdf:RDF>
  </metadata>
  <g
     inkscape:label="Layer 1"
     inkscape:groupmode="layer"
     id="layer1"
     transform="translate(0,-952.36218)"
     style="display:none">
    <path
       style="fill:#ffffff;fill-opacity:1;stroke:#303030;stroke-width:3;stroke-linecap:butt;stroke-linejoin:miter;stroke-miterlimit:4;stroke-opacity:1;stroke-dasharray:none"
       d="m 95,972.36218 c -4.912056,-3.46162 -9.802537,6.9838 -15,10 -3.22333,1.87057 -10,5 -10,5 l 0,10 c 0,0 15.140873,-0.14087 20,-5 4.859127,-4.85913 10.61715,-16.04149 5,-20 z"
       id="path2987-5"
       inkscape:connector-curvature="0"
       sodipodi:nodetypes="aaccaa" />
    <path
       style="fill:#ffffff;fill-opacity:1;stroke:#303030;stroke-width:3;stroke-linecap:butt;stroke-linejoin:miter;stroke-miterlimit:4;stroke-opacity:1;stroke-dasharray:none"
       d="m 10,992.36218 c 4.859127,4.85913 20,5 20,5 l 0,-10 c 0,0 -6.77667,-3.12943 -10,-5 -5.197463,-3.0162 -10.0879438,-13.46162 -15,-10 -5.61715116,3.95851 0.1408734,15.14087 5,20 z"
       id="path2987-5-1"
       inkscape:connector-curvature="0"
       sodipodi:nodetypes="accaaa" />
    <path
       style="fill:#ffffff;fill-opacity:1;stroke:#303030;stroke-width:3;stroke-linecap:butt;stroke-linejoin:miter;stroke-miterlimit:4;stroke-opacity:1;stroke-dasharray:none"
       d="m 70,15 c 4.2999,5.360325 5,13.128157 5,20 0,6.871843 -5,20 -5,20 L 30,55 C 30,55 25,41.871843 25,35 25,28.128157 25.7001,20.360325 30,15 34.663897,9.1859116 42.54644,5 50,5 57.45356,5 65.336103,9.1859116 70,15 z"
       id="path2987"
       inkscape:connector-curvature="0"
       transform="translate(0,952.36218)"
       sodipodi:nodetypes="aaccaaaa" />
    <path
       style="fill:#ffffff;fill-opacity:1;stroke:#303030;stroke-width:3;stroke-linecap:butt;stroke-linejoin:miter;stroke-miterlimit:4;stroke-opacity:1;stroke-dasharray:none"
       d="m 30,1019.3622 c 0,5 1,18 3,23 0,0 2,5 17,5 15,0 17,-5 17,-5 2,-5 3,-18 3,-23"
       id="path2989-1-0"
       inkscape:connector-curvature="0"
       sodipodi:nodetypes="ccscc" />
    <path
       style="fill:#ffffff;fill-opacity:1;stroke:#303030;stroke-width:3;stroke-linecap:round;stroke-linejoin:miter;stroke-miterlimit:4;stroke-opacity:1;stroke-dasharray:none"
       d="m 25,1017.3622 c 5,3 16.60688,3 25,3 8.39312,0 20,0 25,-3 l 0,-10 c -5,-2 -16.640043,-2 -25,-2 -8.359957,0 -20,0 -25,2 z"
       id="path2989-1-7-2"
       inkscape:connector-curvature="0"
       sodipodi:nodetypes="caccacc" />
    <path
       style="fill:#ffffff;fill-opacity:1;stroke:#303030;stroke-width:3;stroke-linecap:butt;stroke-linejoin:miter;stroke-miterlimit:4;stroke-opacity:1;stroke-dasharray:none"
       d="m 45,972.36218 c 0,-2.53859 -0.461409,-7 -3,-7 -2.538591,0 -3,4.46141 -3,7 0,2.53859 0.461409,7 3,7 2.538591,0 3,-4.46141 3,-7 z"
       id="path2987-7-1"
       inkscape:connector-curvature="0"
       sodipodi:nodetypes="aaaaa" />
    <path
       style="fill:#ffffff;fill-opacity:1;stroke:#303030;stroke-width:3;stroke-linecap:butt;stroke-linejoin:miter;stroke-miterlimit:4;stroke-opacity:1;stroke-dasharray:none"
       d="m 65,987.36218 c -5,0 -10,0 -15,0 -5,0 -10,0 -15,0 0,5 5,12 15,12 10,0 15,-7 15,-12 z"
       id="path2987-7-1-1"
       inkscape:connector-curvature="0"
       sodipodi:nodetypes="cacsc" />
    <path
       style="fill:#ffffff;fill-opacity:1;stroke:#303030;stroke-width:3;stroke-linecap:butt;stroke-linejoin:miter;stroke-miterlimit:4;stroke-opacity:1;stroke-dasharray:none"
       d="m 61,972.36218 c 0,-2.53859 -0.461409,-7 -3,-7 -2.538591,0 -3,4.46141 -3,7 0,2.53859 0.461409,7 3,7 2.538591,0 3,-4.46141 3,-7 z"
       id="path2987-7-1-4"
       inkscape:connector-curvature="0"
       sodipodi:nodetypes="aaaaa" />
    <path
       style="fill:#303030;fill-opacity:1;stroke:none"
       d="m 25,26 -3,-3 4,1 z"
       id="path4151"
       inkscape:connector-curvature="0"
       transform="translate(0,952.36218)"
       sodipodi:nodetypes="cccc" />
    <path
       style="fill:#303030;fill-opacity:1;stroke:none"
       d="m 29,969.36218 -2,-4 4,2 z"
       id="path4151-2"
       inkscape:connector-curvature="0"
       sodipodi:nodetypes="cccc" />
    <path
       style="fill:#303030;fill-opacity:1;stroke:none"
       d="m 38,960.36218 -1,-4 3,3 z"
       id="path4151-2-3"
       inkscape:connector-curvature="0"
       sodipodi:nodetypes="cccc" />
    <path
       style="fill:#303030;fill-opacity:1;stroke:none"
       d="m 75,978.36218 3,-3 -4,1 z"
       id="path4151-22"
       inkscape:connector-curvature="0"
       sodipodi:nodetypes="cccc" />
    <path
       style="fill:#303030;fill-opacity:1;stroke:none"
       d="m 71,969.36218 2,-4 -4,2 z"
       id="path4151-2-1"
       inkscape:connector-curvature="0"
       sodipodi:nodetypes="cccc" />
    <path
       style="fill:#303030;fill-opacity:1;stroke:none"
       d="m 61,960.36218 1,-4 -3,3 z"
       id="path4151-2-3-6"
       inkscape:connector-curvature="0"
       sodipodi:nodetypes="cccc" />
    <path
       style="fill:#303030;fill-opacity:1;stroke:none"
       d="m 28,1002.3622 -4,0 3,-2 z"
       id="path4151-8"
       inkscape:connector-curvature="0"
       sodipodi:nodetypes="cccc" />
    <path
       style="fill:#303030;fill-opacity:1;stroke:none"
       d="m 75,990.36218 4,-1 -4,-1 z"
       id="path4151-8-5"
       inkscape:connector-curvature="0"
       sodipodi:nodetypes="cccc" />
    <path
       style="fill:#303030;fill-opacity:1;stroke:none"
       d="m 72,1002.3622 4,0 -3,-2 z"
       id="path4151-8-6"
       inkscape:connector-curvature="0"
       sodipodi:nodetypes="cccc" />
    <path
       style="fill:#303030;fill-opacity:1;stroke:none"
       d="m 25,990.36218 -4,-1 4,-1 z"
       id="path4151-8-5-1"
       inkscape:connector-curvature="0"
       sodipodi:nodetypes="cccc" />
    <path
       style="fill:#303030;fill-opacity:1;stroke:none"
       d="m 19,980.36218 2,-2 0,3 z"
       id="path4151-89"
       inkscape:connector-curvature="0"
       sodipodi:nodetypes="cccc" />
    <path
       style="fill:#303030;fill-opacity:1;stroke:none"
       d="m 11,972.36218 3,-1 -1,3 z"
       id="path4151-89-2"
       inkscape:connector-curvature="0"
       sodipodi:nodetypes="cccc" />
    <path
       style="fill:#303030;fill-opacity:1;stroke:none"
       d="m 3,974.36218 -2,-4 4,2 z"
       id="path4151-89-2-7"
       inkscape:connector-curvature="0"
       sodipodi:nodetypes="cccc" />
    <path
       style="fill:#303030;fill-opacity:1;stroke:none"
       d="m 4,984.36218 -4,0 3,-3 z"
       id="path4151-89-2-7-9"
       inkscape:connector-curvature="0"
       sodipodi:nodetypes="cccc" />
    <path
       style="fill:#303030;fill-opacity:1;stroke:none"
       d="m 10,992.36218 -3,2 1,-4 z"
       id="path4151-89-2-7-9-5"
       inkscape:connector-curvature="0"
       sodipodi:nodetypes="cccc" />
    <path
       style="fill:#303030;fill-opacity:1;stroke:none"
       d="m 19,996.36218 -3,3 1,-4 z"
       id="path4151-89-2-7-9-5-4"
       inkscape:connector-curvature="0"
       sodipodi:nodetypes="cccc" />
    <path
       style="fill:#303030;fill-opacity:1;stroke:none"
       d="m 81,980.36216 -2,-2 0,3 z"
       id="path4151-89-3"
       inkscape:connector-curvature="0"
       sodipodi:nodetypes="cccc" />
    <path
       style="fill:#303030;fill-opacity:1;stroke:none"
       d="m 89,972.36216 -3,-1 1,3 z"
       id="path4151-89-2-1"
       inkscape:connector-curvature="0"
       sodipodi:nodetypes="cccc" />
    <path
       style="fill:#303030;fill-opacity:1;stroke:none"
       d="m 97,974.36216 2,-4 -4,2 z"
       id="path4151-89-2-7-2"
       inkscape:connector-curvature="0"
       sodipodi:nodetypes="cccc" />
    <path
       style="fill:#303030;fill-opacity:1;stroke:none"
       d="m 96,984.36216 4,0 -3,-3 z"
       id="path4151-89-2-7-9-3"
       inkscape:connector-curvature="0"
       sodipodi:nodetypes="cccc" />
    <path
       style="fill:#303030;fill-opacity:1;stroke:none"
       d="m 90,992.36218 3,2 -1,-4 z"
       id="path4151-89-2-7-9-5-3"
       inkscape:connector-curvature="0"
       sodipodi:nodetypes="cccc" />
    <path
       style="fill:#303030;fill-opacity:1;stroke:none"
       d="m 81,996.36218 3,3 -1,-4 z"
       id="path4151-89-2-7-9-5-4-4"
       inkscape:connector-curvature="0"
       sodipodi:nodetypes="cccc" />
    <path
       id="path2989-1-7-2-1-1"
       style="fill:#ffffff;fill-opacity:1;fill-rule:evenodd;stroke:#303030;stroke-width:1.5;stroke-linecap:round;stroke-linejoin:miter;stroke-miterlimit:4;stroke-opacity:1;stroke-dasharray:none"
       d="m 38,1013.3622 c 0,0 4.5,1.5 12,1.5 7.5,0 12,-1.5 12,-1.5 0,0 -1.5,-1.5 -3,0 -1.5,-1.5 -7.5,0 -9,-3 -1.5,3 -7.5,1.5 -9,3 -1.5,-1.5 -3,0 -3,0 z m -3,3 c 7.5,1.5 7.5,1.5 15,1.5 7.5,0 7.5,0 15,-1.5 l 0,-6 c -0.75,0.75 -4.5,-1.5 -6,0 -1.5,-1.5 -7.5,0 -9,-3 -1.5,3 -7.5,1.5 -9,3 -1.5,-1.5 -5.25,0.75 -6,0 z"
       inkscape:connector-curvature="0"
       sodipodi:nodetypes="csccccccsccccccc" />
  </g>
  <g
     inkscape:groupmode="layer"
     id="layer2"
     inkscape:label="Layer">
    <path
       style="fill:#ffffff;stroke:#303030;stroke-width:1px;stroke-linecap:butt;stroke-linejoin:miter;stroke-opacity:1;fill-opacity:1"
       d="M 35,30 C 35,30 15.634161,53.081503 20,65 23.845563,75.498173 38.81966,80 50,80 61.18034,80 76.154437,75.498173 80,65 84.365839,53.081503 65,30 65,30 l 0,-10 c 0,0 3.621825,-3.087884 5,-5 2.179087,-3.023321 7.635231,-7.3647686 5,-10 -2.635231,-2.6352314 -6.321342,5.596964 -10,5 -2.326587,-0.3775532 -2.673413,-5.3775532 -5,-5 -3.678658,0.596964 -1.321342,9.403036 -5,10 -2.326587,0.377553 -2.642977,-5 -5,-5 -2.357023,0 -2.673413,5.377553 -5,5 C 41.321342,14.403036 43.678658,5.596964 40,5 37.673413,4.6224468 37.326587,9.6224468 35,10 31.321342,10.596964 27.466393,2.2061144 25,5 21.023062,9.5050052 35,20 35,20 z"
       id="path4483"
       inkscape:connector-curvature="0"
       sodipodi:nodetypes="caaaccaaaaaaaaaacc" />
    <path
       style="fill:none;stroke:#303030;stroke-width:1px;stroke-linecap:butt;stroke-linejoin:miter;stroke-opacity:1"
       d="m 35,20 c 0,0 9.90098,3 15,3 5.09902,0 15,-3 15,-3"
       inkscape:connector-curvature="0"
       sodipodi:nodetypes="cac" />
    <path
       style="fill:none;stroke:#303030;stroke-width:1px;stroke-linecap:butt;stroke-linejoin:miter;stroke-opacity:1"
       d="m 35,30 c 0,0 9.90098,3 15,3 5.09902,0 15,-3 15,-3"
       id="path4487"
       inkscape:connector-curvature="0"
       sodipodi:nodetypes="cac" />
    <path
       style="fill:none;stroke:#303030;stroke-width:1px;stroke-linecap:butt;stroke-linejoin:miter;stroke-opacity:1"
       d="m 35,25 c 0,0 9.90098,3 15,3 5.09902,0 15,-3 15,-3"
       id="path4485-3"
       inkscape:connector-curvature="0"
       sodipodi:nodetypes="cac" />
    <path
       style="fill:none;stroke:#303030;stroke-width:1px;stroke-linecap:round;stroke-linejoin:miter;stroke-opacity:1"
       d="m 35,30 c 0,0 10.198127,-0.455184 15,-2 5.394384,-1.735434 15,-8 15,-8"
       id="path4485-3-4"
       inkscape:connector-curvature="0"
       sodipodi:nodetypes="cac" />
    <path
       style="fill:none;stroke:#303030;stroke-width:1px;stroke-linecap:round;stroke-linejoin:miter;stroke-opacity:1"
       d="m 35,27 c 0,0 8.094814,-0.907311 12,-2 1.728661,-0.483687 5,-2 5,-2"
       inkscape:connector-curvature="0"
       sodipodi:nodetypes="cac" />
    <path
       style="fill:#303030;fill-opacity:1;stroke:#303030;stroke-width:1px;stroke-linecap:round;stroke-linejoin:miter;stroke-opacity:1"
       d="m 35,24 c 0,0 5,0 8,-2"
       id="path4485-3-4-2-7"
       inkscape:connector-curvature="0"
       sodipodi:nodetypes="cc" />
    <path
       style="fill:none;stroke:#303030;stroke-width:1px;stroke-linecap:round;stroke-linejoin:miter;stroke-opacity:1"
       d="m 57,32 c 5.751407,-1.741386 8,-4 8,-4"
       id="path4485-3-4-2-79"
       inkscape:connector-curvature="0"
       sodipodi:nodetypes="cc" />
    <path
       style="fill:none;stroke:#303030;stroke-width:1px;stroke-linecap:round;stroke-linejoin:miter;stroke-opacity:1"
       d="m 43,32 c 0,0 5.427892,-0.221229 8,-1 4.99362,-1.511946 14,-7 14,-7"
       id="path4485-3-4-2-7-3"
       inkscape:connector-curvature="0"
       sodipodi:nodetypes="cac" />
  </g>
</svg>
