<?xml version="1.0" encoding="UTF-8" standalone="no"?>
<!-- Created with Inkscape (http://www.inkscape.org/) -->

<svg
   xmlns:dc="http://purl.org/dc/elements/1.1/"
   xmlns:cc="http://creativecommons.org/ns#"
   xmlns:rdf="http://www.w3.org/1999/02/22-rdf-syntax-ns#"
   xmlns:svg="http://www.w3.org/2000/svg"
   xmlns="http://www.w3.org/2000/svg"
   version="1.1"
   width="100"
   height="100"
   id="svg2">
  <defs
     id="defs4">
    <linearGradient
       id="linearGradient3944">
      <stop
         id="stop3946"
         style="stop-color:#303030;stop-opacity:1"
         offset="0" />
    </linearGradient>
  </defs>
  <metadata
     id="metadata7">
    <rdf:RDF>
      <cc:Work
         rdf:about="">
        <dc:format>image/svg+xml</dc:format>
        <dc:type
           rdf:resource="http://purl.org/dc/dcmitype/StillImage" />
        <dc:title></dc:title>
      </cc:Work>
    </rdf:RDF>
  </metadata>
  <g
     transform="translate(0,-952.36217)"
     id="layer1">
    <path
       d="m 75,1022.3622 c -10,5 -5,25 -5,25 l -5,0"
       id="path3849-6"
       style="fill:none;stroke:#303030;stroke-width:3;stroke-linecap:round;stroke-linejoin:miter;stroke-miterlimit:4;stroke-opacity:1;stroke-dasharray:none" />
    <path
       d="m 45,987.36214 c -5,10.00003 -15,15.00006 -15,15.00006 l -5,0"
       id="path3849-6-8"
       style="fill:none;stroke:#303030;stroke-width:3;stroke-linecap:round;stroke-linejoin:miter;stroke-miterlimit:4;stroke-opacity:1;stroke-dasharray:none" />
    <path
       d="m 5,957.36217 c 5,-5 5,0 15,0 12.186343,0 40.31251,15.31249 50,25 9.687495,9.68751 25,37.81363 25,50.00003 0,9.9999 5.00003,10 0,15 -5,5 -5,-5 -15,-10 -10,-5 -20.312495,-25.3126 -30,-35.0001 -9.687473,-9.68747 -35.335149,-20.67023 -40,-29.99993 -5,-10 -10,-10 -5,-15 z"
       id="path3789-1"
       style="fill:#ffffff;fill-opacity:1;stroke:#303030;stroke-width:3;stroke-linecap:round;stroke-linejoin:miter;stroke-miterlimit:4;stroke-opacity:1;stroke-dasharray:none" />
    <path
       d="m 85,70 c -10,5 -5,25 -5,25 l -5,0"
       transform="translate(0,952.36217)"
       id="path3849"
       style="fill:none;stroke:#303030;stroke-width:3;stroke-linecap:round;stroke-linejoin:miter;stroke-miterlimit:4;stroke-opacity:1;stroke-dasharray:none" />
    <path
       d="m 55,987.36217 c -5,10.00003 -15,15.00003 -15,15.00003 l -5,0"
       id="path3849-6-8-2"
       style="fill:none;stroke:#303030;stroke-width:3;stroke-linecap:round;stroke-linejoin:miter;stroke-miterlimit:4;stroke-opacity:1;stroke-dasharray:none" />
    <path
       d="m 35,30 c 0,0 7.635231,7.364769 5,10 -2.635231,2.635231 -10,-5 -10,-5 z"
       transform="translate(0,952.36217)"
       id="path3920"
       style="fill:none;stroke:#303030;stroke-width:3;stroke-linecap:round;stroke-linejoin:miter;stroke-miterlimit:4;stroke-opacity:1;stroke-dasharray:none" />
    <path
       d="M 20,20 25,30 15,25"
       transform="translate(0,952.36217)"
       id="path3922"
       style="fill:none;stroke:#303030;stroke-width:3;stroke-linecap:round;stroke-linejoin:miter;stroke-miterlimit:4;stroke-opacity:1;stroke-dasharray:none" />
    <path
       d="m 30,982.36217 c 0,0 0,-1 0,0 z"
       id="path3922-7"
       style="fill:none;stroke:#303030;stroke-width:3;stroke-linecap:round;stroke-linejoin:round;stroke-miterlimit:4;stroke-opacity:1;stroke-dasharray:none" />
  </g>
</svg>
