<?xml version="1.0" encoding="UTF-8" standalone="no"?>
<!-- Created with Inkscape (http://www.inkscape.org/) -->

<svg
   xmlns:dc="http://purl.org/dc/elements/1.1/"
   xmlns:cc="http://creativecommons.org/ns#"
   xmlns:rdf="http://www.w3.org/1999/02/22-rdf-syntax-ns#"
   xmlns:svg="http://www.w3.org/2000/svg"
   xmlns="http://www.w3.org/2000/svg"
   xmlns:sodipodi="http://sodipodi.sourceforge.net/DTD/sodipodi-0.dtd"
   xmlns:inkscape="http://www.inkscape.org/namespaces/inkscape"
   width="100"
   height="100"
   id="svg2"
   version="1.1"
   inkscape:version="0.48.4 r9939"
   sodipodi:docname="heavyHelm1.svg">
  <defs
     id="defs4" />
  <sodipodi:namedview
     id="base"
     pagecolor="#ffffff"
     bordercolor="#666666"
     borderopacity="1.0"
     inkscape:pageopacity="0.0"
     inkscape:pageshadow="2"
     inkscape:zoom="4.8705263"
     inkscape:cx="36.802893"
     inkscape:cy="30.386454"
     inkscape:document-units="px"
     inkscape:current-layer="layer1"
     showgrid="true"
     showguides="false"
     inkscape:window-width="1440"
     inkscape:window-height="878"
     inkscape:window-x="-8"
     inkscape:window-y="-8"
     inkscape:window-maximized="1">
    <inkscape:grid
       type="xygrid"
       id="grid2985"
       empspacing="5"
       visible="true"
       enabled="true"
       snapvisiblegridlinesonly="true" />
  </sodipodi:namedview>
  <metadata
     id="metadata7">
    <rdf:RDF>
      <cc:Work
         rdf:about="">
        <dc:format>image/svg+xml</dc:format>
        <dc:type
           rdf:resource="http://purl.org/dc/dcmitype/StillImage" />
      </cc:Work>
    </rdf:RDF>
  </metadata>
  <g
     inkscape:label="Layer 1"
     inkscape:groupmode="layer"
     id="layer1"
     transform="translate(0,-952.36217)">
    <path
       style="fill:#ffffff;fill-opacity:1;stroke:#303030;stroke-width:3;stroke-linecap:butt;stroke-linejoin:bevel;stroke-miterlimit:8.50000000000000000;stroke-opacity:1;stroke-dasharray:none"
       d="m 10,1037.3622 c 25,5 55,5 80,0 l -5,-15 0,-30.00003 -35,-25 -35,25 0,30.00003 z"
       id="path2987-1-7"
       inkscape:connector-curvature="0"
       sodipodi:nodetypes="cccccccc" />
    <path
       style="fill:#ffffff;fill-opacity:1;stroke:#303030;stroke-width:3;stroke-linecap:butt;stroke-linejoin:miter;stroke-miterlimit:8.5;stroke-opacity:1;stroke-dasharray:none"
       d="m 55,1002.3622 5,5 c 5,-10e-5 20,-5 20,-15.00003 -5,-5 -12.54644,-10 -20,-10 -3.72678,0 -10,5 -10,5 0,0 -6.27322,-5 -10,-5 -7.45356,0 -15,5 -20,10 0,10.00003 15,14.99993 20,15.00003 l 5,-5 -5,35 -5,10 c 0,0 -14.020123,-1.6143 -20,-5 -2.051081,-1.1613 -5,-5 -5,-5 l 5,-15 c 0,0 -5.5488606,-13.1501 -5,-20 1.013801,-12.65241 5.915962,-26.13485 15,-35.00003 6.423385,-6.26863 16.024725,-10 25,-10 8.975275,0 18.576615,3.73137 25,10 9.084038,8.86518 13.986199,22.34762 15,35.00003 0.548861,6.8499 -5,20 -5,20 l 5,14.9999 c 0,0 -2.948904,3.8387 -5,5.0001 -5.97986,3.3857 -20,5 -20,5 l -5,-10 z"
       id="path2987-1"
       inkscape:connector-curvature="0"
       sodipodi:nodetypes="cccacacccccaccaaaaaccaccc" />
  </g>
</svg>
