<?xml version="1.0" encoding="UTF-8" standalone="no"?>
<!-- Created with Inkscape (http://www.inkscape.org/) -->

<svg
   xmlns:dc="http://purl.org/dc/elements/1.1/"
   xmlns:cc="http://creativecommons.org/ns#"
   xmlns:rdf="http://www.w3.org/1999/02/22-rdf-syntax-ns#"
   xmlns:svg="http://www.w3.org/2000/svg"
   xmlns="http://www.w3.org/2000/svg"
   xmlns:sodipodi="http://sodipodi.sourceforge.net/DTD/sodipodi-0.dtd"
   xmlns:inkscape="http://www.inkscape.org/namespaces/inkscape"
   width="100"
   height="100"
   id="svg2"
   version="1.1"
   inkscape:version="0.48.4 r9939"
   sodipodi:docname="heavyTorso1.svg">
  <defs
     id="defs4" />
  <sodipodi:namedview
     id="base"
     pagecolor="#ffffff"
     bordercolor="#666666"
     borderopacity="1.0"
     inkscape:pageopacity="0.0"
     inkscape:pageshadow="2"
     inkscape:zoom="2.0193241"
     inkscape:cx="49.778813"
     inkscape:cy="55.877949"
     inkscape:document-units="px"
     inkscape:current-layer="layer1"
     showgrid="true"
     inkscape:window-width="678"
     inkscape:window-height="453"
     inkscape:window-x="659"
     inkscape:window-y="180"
     inkscape:window-maximized="0">
    <inkscape:grid
       type="xygrid"
       id="grid2985"
       empspacing="5"
       visible="true"
       enabled="true"
       snapvisiblegridlinesonly="true" />
  </sodipodi:namedview>
  <metadata
     id="metadata7">
    <rdf:RDF>
      <cc:Work
         rdf:about="">
        <dc:format>image/svg+xml</dc:format>
        <dc:type
           rdf:resource="http://purl.org/dc/dcmitype/StillImage" />
        <dc:title></dc:title>
      </cc:Work>
    </rdf:RDF>
  </metadata>
  <g
     inkscape:label="Layer 1"
     inkscape:groupmode="layer"
     id="layer1"
     transform="translate(0,-952.36218)">
    <path
       style="fill:#ffffff;fill-opacity:1;stroke:#303030;stroke-width:3;stroke-linecap:butt;stroke-linejoin:miter;stroke-miterlimit:4;stroke-opacity:1;stroke-dasharray:none"
       d="m 50,10 c 10.540926,0 23.447092,-2.735449 30,5 0,10 0,5 0,15 C 80,60 70,55 70,90 62.5,92.5 56.871843,95 50,95 43.128157,95 37.5,92.5 30,90 30,55 20,60 20,35 20.05976,25.705748 20,25 20,15 26.552908,7.264551 39.459074,10 50,10 z"
       id="path2987"
       inkscape:connector-curvature="0"
       transform="translate(0,952.36218)"
       sodipodi:nodetypes="scccacccs" />
    <path
       style="fill:none;fill-opacity:1;stroke:#303030;stroke-width:3;stroke-linecap:round;stroke-linejoin:miter;stroke-miterlimit:4;stroke-opacity:1;stroke-dasharray:none"
       d="m 80,967.36218 c 0,0 -10.064563,-0.80091 -15,0 -5.202408,0.84423 -10,0 -15,5 -5,-5 -9.797592,-4.15577 -15,-5 -4.935437,-0.80091 -15,0 -15,0"
       id="path2987-1-9"
       inkscape:connector-curvature="0"
       sodipodi:nodetypes="cacac" />
    <path
       style="fill:#ffffff;fill-opacity:1;stroke:#303030;stroke-width:3;stroke-linecap:round;stroke-linejoin:miter;stroke-miterlimit:4;stroke-opacity:1;stroke-dasharray:none"
       d="m 80,982.36218 c 0,0 -1.829812,8.04072 -5,10 -7.088757,4.38109 -20,5 -25,0 -5,5 -17.911243,4.38109 -25,0 -3.170188,-1.95928 -5,-10 -5,-10"
       id="path2987-1-9-8"
       inkscape:connector-curvature="0"
       sodipodi:nodetypes="cacac" />
    <path
       style="fill:none;stroke:#303030;stroke-width:3;stroke-linecap:round;stroke-linejoin:miter;stroke-miterlimit:4;stroke-opacity:1;stroke-dasharray:none"
       d="m 50,992.36218 0,-20"
       id="path2987-1-9-8-8"
       inkscape:connector-curvature="0"
       sodipodi:nodetypes="cc" />
    <path
       style="fill:none;stroke:#303030;stroke-width:3;stroke-linecap:round;stroke-linejoin:miter;stroke-miterlimit:4;stroke-opacity:1;stroke-dasharray:none"
       d="m 50,1037.3622 0,-45.00002"
       id="path2987-1-9-8-8-2"
       inkscape:connector-curvature="0"
       sodipodi:nodetypes="cc" />
    <path
       style="fill:none;stroke:#303030;stroke-width:3;stroke-linecap:round;stroke-linejoin:miter;stroke-miterlimit:4;stroke-opacity:1;stroke-dasharray:none"
       d="m 65,997.36218 c 0,20.00002 0,40.00002 -15,40.00002 -15,0 -15,-20 -15,-40.00002"
       id="path2987-1-9-8-8-2-4"
       inkscape:connector-curvature="0"
       sodipodi:nodetypes="ccc" />
    <path
       style="fill:none;stroke:#303030;stroke-width:3;stroke-linecap:round;stroke-linejoin:miter;stroke-miterlimit:4;stroke-opacity:1;stroke-dasharray:none"
       d="m 65,1002.3622 c 0,0 -10,5 -15,0 -5,5 -15,0 -15,0"
       id="path2987-1-9-8-8-2-5"
       inkscape:connector-curvature="0"
       sodipodi:nodetypes="ccc" />
    <path
       style="fill:none;stroke:#303030;stroke-width:3;stroke-linecap:butt;stroke-linejoin:miter;stroke-miterlimit:4;stroke-opacity:1;stroke-dasharray:none"
       d="m 65,1014.3622 c 0,0 -10,5 -15,0 -5,5 -15,0 -15,0"
       id="path2987-1-9-8-8-2-5-5"
       inkscape:connector-curvature="0"
       sodipodi:nodetypes="ccc" />
    <path
       style="fill:none;stroke:#303030;stroke-width:3;stroke-linecap:round;stroke-linejoin:miter;stroke-miterlimit:4;stroke-opacity:1;stroke-dasharray:none"
       d="m 62,1026.3622 c 0,0 -7,6 -12,1 -5,5 -12,-1 -12,-1"
       id="path2987-1-9-8-8-2-5-5-1"
       inkscape:connector-curvature="0"
       sodipodi:nodetypes="ccc" />
  </g>
</svg>
