<?xml version="1.0" encoding="UTF-8" standalone="no"?>
<!-- Created with Inkscape (http://www.inkscape.org/) -->

<svg
   xmlns:dc="http://purl.org/dc/elements/1.1/"
   xmlns:cc="http://creativecommons.org/ns#"
   xmlns:rdf="http://www.w3.org/1999/02/22-rdf-syntax-ns#"
   xmlns:svg="http://www.w3.org/2000/svg"
   xmlns="http://www.w3.org/2000/svg"
   xmlns:sodipodi="http://sodipodi.sourceforge.net/DTD/sodipodi-0.dtd"
   xmlns:inkscape="http://www.inkscape.org/namespaces/inkscape"
   width="100"
   height="100"
   id="svg3765"
   version="1.1"
   inkscape:version="0.48.4 r9939"
   sodipodi:docname="StatsIcon.svg">
  <defs
     id="defs3767" />
  <sodipodi:namedview
     id="base"
     pagecolor="#ffffff"
     bordercolor="#666666"
     borderopacity="1.0"
     inkscape:pageopacity="0.0"
     inkscape:pageshadow="2"
     inkscape:zoom="5.6568543"
     inkscape:cx="53.100523"
     inkscape:cy="48.17164"
     inkscape:document-units="px"
     inkscape:current-layer="layer1"
     showgrid="true"
     showguides="false"
     inkscape:window-width="1440"
     inkscape:window-height="878"
     inkscape:window-x="-8"
     inkscape:window-y="-8"
     inkscape:window-maximized="1">
    <inkscape:grid
       type="xygrid"
       id="grid3811"
       empspacing="5"
       visible="true"
       enabled="true"
       snapvisiblegridlinesonly="true" />
  </sodipodi:namedview>
  <metadata
     id="metadata3770">
    <rdf:RDF>
      <cc:Work
         rdf:about="">
        <dc:format>image/svg+xml</dc:format>
        <dc:type
           rdf:resource="http://purl.org/dc/dcmitype/StillImage" />
        <dc:title />
      </cc:Work>
    </rdf:RDF>
  </metadata>
  <g
     inkscape:label="Layer 1"
     inkscape:groupmode="layer"
     id="layer1"
     transform="translate(0,-952.36218)">
    <path
       style="fill:#ffffff;fill-opacity:1;fill-rule:nonzero;stroke:#303030;stroke-width:0;stroke-miterlimit:4;stroke-opacity:1;stroke-dasharray:none"
       d="M 10,35 C 10.737474,25.600797 20.69365,16.510213 30,15 37.357316,13.806072 50,25 50,25 50,25 62.642684,13.806072 70,15 79.30635,16.510213 89.262526,25.600797 90,35 91.7732,57.59966 53.971609,85.119258 50,90 50,90 8.2268,57.59966 10,35 z"
       id="path3962"
       inkscape:connector-curvature="0"
       transform="translate(0,952.36218)"
       sodipodi:nodetypes="aacaaca" />
    <path
       style="fill:none;stroke:#303030;stroke-width:3px;stroke-linecap:butt;stroke-linejoin:miter;stroke-opacity:1"
       d="M 50,25 C 50,25 62.642684,13.806072 70,15 79.30635,16.510213 89.262526,25.600797 90,35 91.7732,57.59966 50,90 50,90 50,90 8.2268,57.59966 10,35 10.737474,25.600797 20.69365,16.510213 30,15 37.357316,13.806072 50,25 50,25 z"
       id="path4562"
       inkscape:connector-curvature="0"
       transform="translate(0,952.36218)"
       sodipodi:nodetypes="caacaac" />
  </g>
</svg>
