<?xml version="1.0" encoding="UTF-8" standalone="no"?>
<!-- Created with Inkscape (http://www.inkscape.org/) -->

<svg
   xmlns:dc="http://purl.org/dc/elements/1.1/"
   xmlns:cc="http://creativecommons.org/ns#"
   xmlns:rdf="http://www.w3.org/1999/02/22-rdf-syntax-ns#"
   xmlns:svg="http://www.w3.org/2000/svg"
   xmlns="http://www.w3.org/2000/svg"
   xmlns:sodipodi="http://sodipodi.sourceforge.net/DTD/sodipodi-0.dtd"
   xmlns:inkscape="http://www.inkscape.org/namespaces/inkscape"
   width="100"
   height="46.5858"
   id="svg6280"
   version="1.1"
   inkscape:version="0.48.4 r9939"
   sodipodi:docname="SteamIcon.svg">
  <defs
     id="defs6282" />
  <sodipodi:namedview
     id="base"
     pagecolor="#ffffff"
     bordercolor="#666666"
     borderopacity="1.0"
     inkscape:pageopacity="0.0"
     inkscape:pageshadow="2"
     inkscape:zoom="2.8"
     inkscape:cx="6.4841466"
     inkscape:cy="10.28525"
     inkscape:document-units="px"
     inkscape:current-layer="layer1"
     showgrid="true"
     showguides="false"
     inkscape:window-width="1440"
     inkscape:window-height="878"
     inkscape:window-x="-8"
     inkscape:window-y="-8"
     inkscape:window-maximized="1"
     fit-margin-top="2.3"
     fit-margin-left="0"
     fit-margin-right="0"
     fit-margin-bottom="0">
    <inkscape:grid
       type="xygrid"
       id="grid6288"
       empspacing="5"
       visible="true"
       enabled="true"
       snapvisiblegridlinesonly="true"
       originx="-1.580917px"
       originy="-27.14247px" />
  </sodipodi:namedview>
  <metadata
     id="metadata6285">
    <rdf:RDF>
      <cc:Work
         rdf:about="">
        <dc:format>image/svg+xml</dc:format>
        <dc:type
           rdf:resource="http://purl.org/dc/dcmitype/StillImage" />
        <dc:title></dc:title>
      </cc:Work>
    </rdf:RDF>
  </metadata>
  <g
     inkscape:label="Layer 1"
     inkscape:groupmode="layer"
     id="layer1"
     transform="translate(-1.580917,-978.6339)">
    <path
       id="path6292"
       d="m 3.3666313,993.14797 q 0,-4.05954 2.8416692,-6.93813 2.8416691,-2.87857 6.9011955,-2.87857 3.469051,0 6.1631,2.17738 2.69405,2.17738 3.432146,5.49877 l 37.052411,14.90958 q 2.361906,-1.4023 5.019052,-1.4023 0.147619,0 0.479763,0.037 0.332142,0.037 0.553571,0.037 l 8.119055,-11.73575 q 0.07381,-5.38806 3.911907,-9.18929 3.838098,-3.80119 9.226199,-3.80119 5.461908,0 9.300004,3.8381 3.838106,3.83812 3.838106,9.29998 0,5.46194 -3.838106,9.30005 -3.838096,3.8381 -9.300004,3.8381 l -12.54763,9.1524 q -0.369048,3.7643 -3.173812,6.3107 -2.804765,2.5465 -6.569053,2.5465 -3.542861,0 -6.200005,-2.2143 -2.657146,-2.2143 -3.395241,-5.5357 l -37.052411,-14.8358 q -2.361907,1.4024 -5.019052,1.4024 -4.0595264,0 -6.9011955,-2.8786 -2.8416692,-2.87853 -2.8416692,-6.93807 z m 2.5833357,0 q 0,2.95232 2.1035728,5.05593 2.1035732,2.1036 5.0559562,2.1036 0.664286,0 1.550001,-0.1477 l -3.026193,-1.18093 0,-0.0741 q -2.0666676,-0.95953 -2.9523826,-3.1 -0.4428575,-1.03333 -0.4428575,-2.06666 0,-1.10714 0.4428575,-2.21435 0.885715,-2.21426 2.9523826,-3.1 1.107144,-0.51667 2.288098,-0.44279 0.959524,0 1.992858,0.36899 l 0,-0.0741 3.61667,1.47621 q -2.140478,-3.8381 -6.421434,-3.8381 -2.952383,0 -5.0559562,2.10356 -2.1035728,2.10361 -2.1035728,5.12981 z m 52.404804,24.57853 q 2.140478,3.8382 6.421434,3.8382 2.952384,0 5.092861,-2.1036 2.140478,-2.1036 2.140478,-5.1298 0,-2.9524 -2.103573,-5.056 -2.103573,-2.1035 -5.129766,-2.1035 -1.033334,0 -1.550002,0.1476 l 2.952384,1.1809 q 2.214288,0.8858 3.173812,3.1 0.516667,1.1072 0.516667,2.2144 0,1.0333 -0.442858,2.1404 -0.885715,2.2881 -3.100002,3.1738 -1.107144,0.4429 -2.214288,0.4429 -1.033333,0 -2.140477,-0.4429 -0.590477,-0.2214 -1.808335,-0.7012 -1.217858,-0.4797 -1.808335,-0.7012 z m 19.928588,-24.72621 q 0,3.61667 2.583335,6.19998 2.583335,2.58343 6.200006,2.58343 3.690478,0 6.273814,-2.58343 2.583338,-2.58331 2.583338,-6.19998 0,-3.61667 -2.583338,-6.19998 -2.583336,-2.58333 -6.273814,-2.58333 -3.616671,0 -6.200006,2.58333 -2.583335,2.58331 -2.583335,6.19998 z m 1.845239,-0.0741 q 0,2.95241 2.029764,5.01908 2.029764,2.06673 4.982147,2.06673 2.878574,0 4.945242,-2.06673 2.066669,-2.06667 2.066669,-5.01908 0,-2.87852 -2.066669,-4.94519 -2.066668,-2.0667 -4.945242,-2.0667 -2.952383,0 -4.982147,2.0667 -2.029764,2.06667 -2.029764,4.94519 z"
       inkscape:connector-curvature="0"
       style="fill:#303030;fill-opacity:1" />
  </g>
</svg>
