<?xml version="1.0" encoding="UTF-8" standalone="no"?>
<!-- Created with Inkscape (http://www.inkscape.org/) -->

<svg
   xmlns:dc="http://purl.org/dc/elements/1.1/"
   xmlns:cc="http://creativecommons.org/ns#"
   xmlns:rdf="http://www.w3.org/1999/02/22-rdf-syntax-ns#"
   xmlns:svg="http://www.w3.org/2000/svg"
   xmlns="http://www.w3.org/2000/svg"
   xmlns:sodipodi="http://sodipodi.sourceforge.net/DTD/sodipodi-0.dtd"
   xmlns:inkscape="http://www.inkscape.org/namespaces/inkscape"
   width="100"
   height="100"
   id="svg2"
   version="1.1"
   inkscape:version="0.48.4 r9939"
   sodipodi:docname="guardHook.svg">
  <defs
     id="defs4" />
  <sodipodi:namedview
     id="base"
     pagecolor="#ffffff"
     bordercolor="#666666"
     borderopacity="1.0"
     inkscape:pageopacity="0.0"
     inkscape:pageshadow="2"
     inkscape:zoom="5.1971835"
     inkscape:cx="35.519271"
     inkscape:cy="45.824607"
     inkscape:document-units="px"
     inkscape:current-layer="layer2"
     showgrid="true"
     inkscape:window-width="1440"
     inkscape:window-height="878"
     inkscape:window-x="-8"
     inkscape:window-y="-8"
     inkscape:window-maximized="1">
    <inkscape:grid
       type="xygrid"
       id="grid2985"
       empspacing="5"
       visible="true"
       enabled="true"
       snapvisiblegridlinesonly="true" />
  </sodipodi:namedview>
  <metadata
     id="metadata7">
    <rdf:RDF>
      <cc:Work
         rdf:about="">
        <dc:format>image/svg+xml</dc:format>
        <dc:type
           rdf:resource="http://purl.org/dc/dcmitype/StillImage" />
        <dc:title></dc:title>
      </cc:Work>
    </rdf:RDF>
  </metadata>
  <g
     inkscape:groupmode="layer"
     id="layer4"
     inkscape:label="Pommel"
     style="display:none">
    <path
       style="fill:#ffffff;fill-opacity:1;stroke:#303030;stroke-width:3;stroke-linecap:butt;stroke-linejoin:miter;stroke-miterlimit:4.5;stroke-opacity:1;stroke-dasharray:none"
       d="m 90,15 c 0,0 3.821489,1.178511 5,0 2.357023,-2.357023 2.357023,-7.6429774 0,-10 -2.357023,-2.3570226 -7.642977,-2.3570226 -10,0 -1.178511,1.1785113 0,5 0,5 z"
       id="path3767"
       inkscape:connector-curvature="0"
       sodipodi:nodetypes="caaacc" />
  </g>
  <g
     inkscape:groupmode="layer"
     id="layer5"
     inkscape:label="Grip"
     style="display:none">
    <path
       style="fill:#ffffff;fill-opacity:1;stroke:#303030;stroke-width:3;stroke-linecap:butt;stroke-linejoin:miter;stroke-miterlimit:4.5;stroke-opacity:1;stroke-dasharray:none"
       d="M 75,30 C 75,25 85,15 90,15 l -5,-5 c 0,5 -10,15 -15,15 z"
       id="path3763"
       inkscape:connector-curvature="0"
       sodipodi:nodetypes="ccccc" />
  </g>
  <g
     inkscape:groupmode="layer"
     id="layer3"
     inkscape:label="Guard"
     style="display:none">
    <path
       style="fill:#ffffff;fill-opacity:1;stroke:#303030;stroke-width:3;stroke-linecap:butt;stroke-linejoin:miter;stroke-miterlimit:4.5;stroke-opacity:1;stroke-dasharray:none"
       d="m 70,35 0,0 c 0,0 5,5 0,10 10,0 5,-15 5,-15 l -5,-5 c 0,0 -5,-5 0,-10 -10,0 -5,15 -5,15 l 0,0 z"
       id="path3761"
       inkscape:connector-curvature="0"
       sodipodi:nodetypes="ccccccccc" />
  </g>
  <g
     inkscape:groupmode="layer"
     id="layer2"
     inkscape:label="Blade"
     style="display:inline">
    <path
       style="fill:#ffffff;fill-opacity:1;stroke:#303030;stroke-width:3;stroke-linecap:butt;stroke-linejoin:miter;stroke-miterlimit:50;stroke-opacity:1;stroke-dasharray:none"
       d="M 10,90 C 8.772998,86.778107 8.5677812,83.368782 9.0820313,80.244141 9.0717627,80.205818 15.343262,76.697998 16,75 c 0.656738,-1.697998 0,-5 0,-5 0,0 6.757324,-3.321533 8,-5 1.242676,-1.678467 0,-5 0,-5 0,0 7.38623,-3.428955 9,-5 1.61377,-1.571045 0,-5 0,-5 0,0 10.162085,-2.984559 12,-5 1.837915,-2.015441 0,-5 0,-5 1.012386,-0.464726 9.477384,-3.477384 11,-5 1,-1 0,-5 0,-5 l 9,0 5,5 -35,35 C 30,70 15,80 10,90 z"
       id="path3759"
       inkscape:connector-curvature="0"
       sodipodi:nodetypes="ccscscscscsccccc" />
  </g>
</svg>
