<?xml version="1.0" encoding="UTF-8" standalone="no"?>
<!-- Created with Inkscape (http://www.inkscape.org/) -->

<svg
   xmlns:dc="http://purl.org/dc/elements/1.1/"
   xmlns:cc="http://creativecommons.org/ns#"
   xmlns:rdf="http://www.w3.org/1999/02/22-rdf-syntax-ns#"
   xmlns:svg="http://www.w3.org/2000/svg"
   xmlns="http://www.w3.org/2000/svg"
   xmlns:sodipodi="http://sodipodi.sourceforge.net/DTD/sodipodi-0.dtd"
   xmlns:inkscape="http://www.inkscape.org/namespaces/inkscape"
   width="100"
   height="100"
   id="svg2"
   version="1.1"
   inkscape:version="0.48.4 r9939"
   sodipodi:docname="guardSpike.svg">
  <defs
     id="defs4" />
  <sodipodi:namedview
     id="base"
     pagecolor="#ffffff"
     bordercolor="#666666"
     borderopacity="1.0"
     inkscape:pageopacity="0.0"
     inkscape:pageshadow="2"
     inkscape:zoom="9.7759777"
     inkscape:cx="67.043369"
     inkscape:cy="67.399496"
     inkscape:document-units="px"
     inkscape:current-layer="layer3"
     showgrid="true"
     inkscape:window-width="1440"
     inkscape:window-height="878"
     inkscape:window-x="-8"
     inkscape:window-y="-8"
     inkscape:window-maximized="1">
    <inkscape:grid
       type="xygrid"
       id="grid2985"
       empspacing="5"
       visible="true"
       enabled="true"
       snapvisiblegridlinesonly="true" />
  </sodipodi:namedview>
  <metadata
     id="metadata7">
    <rdf:RDF>
      <cc:Work
         rdf:about="">
        <dc:format>image/svg+xml</dc:format>
        <dc:type
           rdf:resource="http://purl.org/dc/dcmitype/StillImage" />
        <dc:title />
      </cc:Work>
    </rdf:RDF>
  </metadata>
  <g
     inkscape:groupmode="layer"
     id="layer4"
     inkscape:label="Pommel"
     style="display:none">
    <path
       style="fill:#ffffff;fill-opacity:1;stroke:#303030;stroke-width:3;stroke-linecap:butt;stroke-linejoin:miter;stroke-miterlimit:50;stroke-opacity:1;stroke-dasharray:none"
       d="m 87,13 6,0 0,-6 -6,0 z"
       id="path3767"
       inkscape:connector-curvature="0"
       sodipodi:nodetypes="ccccc" />
  </g>
  <g
     inkscape:groupmode="layer"
     id="layer5"
     inkscape:label="Grip"
     style="display:none">
    <path
       style="fill:#ffffff;fill-opacity:1;stroke:#303030;stroke-width:3;stroke-linecap:butt;stroke-linejoin:round;stroke-miterlimit:50;stroke-opacity:1;stroke-dasharray:none"
       d="m 70,25 5,5 15,-15 -5,-5 z"
       id="path3763"
       inkscape:connector-curvature="0"
       sodipodi:nodetypes="ccccc" />
    <path
       style="fill:none;stroke:#303030;stroke-width:3;stroke-linecap:butt;stroke-linejoin:round;stroke-miterlimit:8.5;stroke-opacity:1;stroke-dasharray:none;display:inline"
       d="m 75,20 0,10 5,-5 0,-10 5,-5 0,10"
       id="path3763-7"
       inkscape:connector-curvature="0"
       sodipodi:nodetypes="cccccc" />
  </g>
  <g
     inkscape:groupmode="layer"
     id="layer3"
     inkscape:label="Guard"
     style="display:inline">
    <path
       style="fill:#ffffff;fill-opacity:1;stroke:#303030;stroke-width:3;stroke-linecap:butt;stroke-linejoin:miter;stroke-miterlimit:50;stroke-opacity:1;stroke-dasharray:none"
       d="m 70,35 c 2.333333,2.333333 7,7 7,7 0,0 -3.092228,-4.832991 -2,-7 1.281849,-2.543221 8,-3 8,-3 0,0 -5.608049,-0.6457 -8,-2 -2.051081,-1.161302 -3.838698,-2.948919 -5,-5 -1.3543,-2.391951 -2,-8 -2,-8 0,0 -0.456779,6.718151 -3,8 -2.167009,1.092228 -7,-2 -7,-2 0,0 4.666667,4.666667 7,7 1.666667,1.666667 3.333333,3.333333 5,5 z"
       id="path3761"
       inkscape:connector-curvature="0"
       sodipodi:nodetypes="acacaacacaa" />
  </g>
  <g
     inkscape:groupmode="layer"
     id="layer2"
     inkscape:label="Blade"
     style="display:none">
    <path
       style="fill:#ffffff;fill-opacity:1;stroke:#303030;stroke-width:3;stroke-linecap:butt;stroke-linejoin:miter;stroke-miterlimit:50;stroke-opacity:1;stroke-dasharray:none"
       d="M 10,90 C 8.772998,86.778107 8.5677812,83.368782 9.0820313,80.244141 9.0717627,80.205818 15.343262,76.697998 16,75 c 0.656738,-1.697998 0,-5 0,-5 0,0 6.757324,-3.321533 8,-5 1.242676,-1.678467 0,-5 0,-5 0,0 7.38623,-3.428955 9,-5 1.61377,-1.571045 0,-5 0,-5 0,0 10.162085,-2.984559 12,-5 1.837915,-2.015441 0,-5 0,-5 1.012386,-0.464726 9.477384,-3.477384 11,-5 1,-1 0,-5 0,-5 l 9,0 5,5 -35,35 C 30,70 15,80 10,90 z"
       id="path3759"
       inkscape:connector-curvature="0"
       sodipodi:nodetypes="ccscscscscsccccc" />
  </g>
</svg>
